<svg xmlns="http://www.w3.org/2000/svg" viewBox="0 0 64 64" role="img" aria-labelledby="title desc">
  <title id="title">Acme Co. Logo</title>
  <desc id="desc">Stylized letter A inside a circle</desc>
  <defs>
    <linearGradient id="gradient" x1="0%" y1="0%" x2="100%" y2="100%">
      <stop offset="0%" stop-color="#2f80ed" />
      <stop offset="100%" stop-color="#6c5ce7" />
    </linearGradient>
  </defs>
  <circle cx="32" cy="32" r="30" fill="url(#gradient)" />
  <path
    fill="#ffffff"
    d="M32 15a1 1 0 0 1 .9.56l13 27a1 1 0 0 1-.9 1.44h-5.54a1 1 0 0 1-.9-.56l-3.03-6.3H28.5l-3.03 6.3a1 1 0 0 1-.9.56h-5.54a1 1 0 0 1-.9-1.44l13-27A1 1 0 0 1 32 15Zm0 11.38L28.97 33h6.06Z"
  />
</svg>
